<mxfile host="Electron" modified="2023-05-15T04:54:28.782Z" agent="Mozilla/5.0 (Macintosh; Intel Mac OS X 10_15_7) AppleWebKit/537.36 (KHTML, like Gecko) draw.io/21.2.8 Chrome/112.0.5615.165 Electron/24.2.0 Safari/537.36" etag="KBVJPfwnwlBFyhBu_9AN" version="21.2.8" type="device">
  <diagram id="rNHKK1yhK9kCkyrtshHb" name="Use Case 1">
    <mxGraphModel dx="942" dy="672" grid="1" gridSize="10" guides="1" tooltips="1" connect="1" arrows="1" fold="1" page="1" pageScale="1" pageWidth="850" pageHeight="1100" math="0" shadow="0">
      <root>
        <mxCell id="0" />
        <mxCell id="1" parent="0" />
        <mxCell id="yiIK-uw70T_74rNSMEkW-1" value="&lt;h1&gt;Use Case 1&lt;/h1&gt;&lt;p&gt;Here&#39;s some fact about the SFTP sever where we want to ingest data from.&lt;/p&gt;&lt;p&gt;&lt;/p&gt;&lt;ul&gt;&lt;li&gt;Immutable upload: file upload is immutable. You cannot overwrite, update a file, but it can be deleted later. Once it is deleted, you never do upload with the same filename.&lt;/li&gt;&lt;li&gt;Partitioned: you can expect the file system has many folders (partitions). The total amount of data within a partition is predictable and manageable. Also, you can expect a partition will become immutable at certain time.&lt;/li&gt;&lt;/ul&gt;&lt;p&gt;&lt;/p&gt;" style="text;html=1;strokeColor=default;fillColor=none;spacing=5;spacingTop=-20;whiteSpace=wrap;overflow=hidden;rounded=0;" parent="1" vertex="1">
          <mxGeometry x="80" y="40" width="680" height="240" as="geometry" />
        </mxCell>
        <mxCell id="SaHnAKlGwQADHH2T9fnX-106" value="SFTP Server Folder Structure" style="swimlane;whiteSpace=wrap;html=1;" vertex="1" parent="1">
          <mxGeometry x="80" y="320" width="680" height="400" as="geometry" />
        </mxCell>
        <mxCell id="yiIK-uw70T_74rNSMEkW-5" value="SFTP&#xa;Server" style="shape=image;verticalLabelPosition=bottom;labelBackgroundColor=default;verticalAlign=top;imageAspect=0;image=data:image/png,iVBORw0KGgoAAAANSUhEUgAAAGAAAABgCAYAAADimHc4AAAACXBIWXMAAAsTAAALEwEAmpwYAAACMUlEQVR4nO2YO04DQRBERyKES/QVnIyWC5gl4ShLRALEfA5AaMkn4OOQHF+Bj8QBgIwNLBMM2rUcgGUidssz80qqyNmrre5xO4cQQgghhBBCHcmuPkOMdqlIDdIIQA/TaIAeqDGCFhD88GAjnc0OUIP2BKABvH9ahMOP7VC974TypKABvucAGvBHYat19bZDAJ4A8toB5UnRtqD5+veOd2mA3zDzChoSQC8jKBa7VKQGaQSgh2k0QA/UGEELCOpl63kF6WHzDB32D5hbkHgEVdyCCECiTWlAyS2IV1DWDfC8guKyS0VqkEYAephGA/RAjRG0gKBetn6Ns9kBatCeADSAuQWJG1BxCyKArHdAyS2IJZx1AzyvoLjsUpEapBGAHqbRAD1QYwQtIKiXrV/jbHaAGrQnAA1gbkHiBlTcgggg6x1QcgtiCWfdAM8rKC67VKQGaQSgh2k0QA/UGEFx2aUiNUgjAD1MowF6oMYIissuFalBGgHoYRoN0AM1RlBcdqlIDdIIQA/TaIAeqDGC/g/OYFSHi+ksTF7mrS+ns1CMawLoYwcMRnW4eZqH+9evH759mre/0YCOA7iYzlbgL33+MCOArgOYvKx+/UtPnucEoAzgjgC63wGXf4ygM0ZQ9wEU47pduL/hXz+yhHv7JzwY1e3CbWZ+4+bL/88XUGOXiroIwHqwS0VqkEYAephGA/RAjREUl10qUoM0AtDDNBqgB2q5jiCEEEIIIYSQ2xR9A0FHc9YaZmRmAAAAAElFTkSuQmCC;" parent="SaHnAKlGwQADHH2T9fnX-106" vertex="1">
          <mxGeometry x="120" y="160" width="80" height="80" as="geometry" />
        </mxCell>
        <mxCell id="yiIK-uw70T_74rNSMEkW-14" value="Partition 1" style="shape=image;verticalLabelPosition=bottom;labelBackgroundColor=default;verticalAlign=top;aspect=fixed;imageAspect=0;image=data:image/svg+xml,PHN2ZyB4bWxucz0iaHR0cDovL3d3dy53My5vcmcvMjAwMC9zdmciIHZpZXdCb3g9IjAgMCA0OCA0OCIgd2lkdGg9IjQ4cHgiIGhlaWdodD0iNDhweCI+PHBhdGggZmlsbD0iI0ZGQTAwMCIgZD0iTTQwLDEySDIybC00LTRIOGMtMi4yLDAtNCwxLjgtNCw0djhoNDB2LTRDNDQsMTMuOCw0Mi4yLDEyLDQwLDEyeiIvPjxwYXRoIGZpbGw9IiNGRkNBMjgiIGQ9Ik00MCwxMkg4Yy0yLjIsMC00LDEuOC00LDR2MjBjMCwyLjIsMS44LDQsNCw0aDMyYzIuMiwwLDQtMS44LDQtNFYxNkM0NCwxMy44LDQyLjIsMTIsNDAsMTJ6Ii8+PC9zdmc+;" parent="SaHnAKlGwQADHH2T9fnX-106" vertex="1">
          <mxGeometry x="280" y="80" width="40" height="40" as="geometry" />
        </mxCell>
        <mxCell id="yiIK-uw70T_74rNSMEkW-19" style="edgeStyle=orthogonalEdgeStyle;rounded=0;orthogonalLoop=1;jettySize=auto;html=1;exitX=1;exitY=0.25;exitDx=0;exitDy=0;entryX=0;entryY=0.5;entryDx=0;entryDy=0;" parent="SaHnAKlGwQADHH2T9fnX-106" source="yiIK-uw70T_74rNSMEkW-5" target="yiIK-uw70T_74rNSMEkW-14" edge="1">
          <mxGeometry relative="1" as="geometry" />
        </mxCell>
        <mxCell id="yiIK-uw70T_74rNSMEkW-16" value="Partition 2" style="shape=image;verticalLabelPosition=bottom;labelBackgroundColor=default;verticalAlign=top;aspect=fixed;imageAspect=0;image=data:image/svg+xml,PHN2ZyB4bWxucz0iaHR0cDovL3d3dy53My5vcmcvMjAwMC9zdmciIHZpZXdCb3g9IjAgMCA0OCA0OCIgd2lkdGg9IjQ4cHgiIGhlaWdodD0iNDhweCI+PHBhdGggZmlsbD0iI0ZGQTAwMCIgZD0iTTQwLDEySDIybC00LTRIOGMtMi4yLDAtNCwxLjgtNCw0djhoNDB2LTRDNDQsMTMuOCw0Mi4yLDEyLDQwLDEyeiIvPjxwYXRoIGZpbGw9IiNGRkNBMjgiIGQ9Ik00MCwxMkg4Yy0yLjIsMC00LDEuOC00LDR2MjBjMCwyLjIsMS44LDQsNCw0aDMyYzIuMiwwLDQtMS44LDQtNFYxNkM0NCwxMy44LDQyLjIsMTIsNDAsMTJ6Ii8+PC9zdmc+;" parent="SaHnAKlGwQADHH2T9fnX-106" vertex="1">
          <mxGeometry x="280" y="180" width="40" height="40" as="geometry" />
        </mxCell>
        <mxCell id="yiIK-uw70T_74rNSMEkW-20" style="edgeStyle=orthogonalEdgeStyle;rounded=0;orthogonalLoop=1;jettySize=auto;html=1;exitX=1;exitY=0.5;exitDx=0;exitDy=0;entryX=0;entryY=0.5;entryDx=0;entryDy=0;" parent="SaHnAKlGwQADHH2T9fnX-106" source="yiIK-uw70T_74rNSMEkW-5" target="yiIK-uw70T_74rNSMEkW-16" edge="1">
          <mxGeometry relative="1" as="geometry" />
        </mxCell>
        <mxCell id="yiIK-uw70T_74rNSMEkW-17" value="Partition 3" style="shape=image;verticalLabelPosition=bottom;labelBackgroundColor=default;verticalAlign=top;aspect=fixed;imageAspect=0;image=data:image/svg+xml,PHN2ZyB4bWxucz0iaHR0cDovL3d3dy53My5vcmcvMjAwMC9zdmciIHZpZXdCb3g9IjAgMCA0OCA0OCIgd2lkdGg9IjQ4cHgiIGhlaWdodD0iNDhweCI+PHBhdGggZmlsbD0iI0ZGQTAwMCIgZD0iTTQwLDEySDIybC00LTRIOGMtMi4yLDAtNCwxLjgtNCw0djhoNDB2LTRDNDQsMTMuOCw0Mi4yLDEyLDQwLDEyeiIvPjxwYXRoIGZpbGw9IiNGRkNBMjgiIGQ9Ik00MCwxMkg4Yy0yLjIsMC00LDEuOC00LDR2MjBjMCwyLjIsMS44LDQsNCw0aDMyYzIuMiwwLDQtMS44LDQtNFYxNkM0NCwxMy44LDQyLjIsMTIsNDAsMTJ6Ii8+PC9zdmc+;" parent="SaHnAKlGwQADHH2T9fnX-106" vertex="1">
          <mxGeometry x="280" y="280" width="40" height="40" as="geometry" />
        </mxCell>
        <mxCell id="yiIK-uw70T_74rNSMEkW-21" style="edgeStyle=orthogonalEdgeStyle;rounded=0;orthogonalLoop=1;jettySize=auto;html=1;exitX=1;exitY=0.75;exitDx=0;exitDy=0;entryX=0;entryY=0.5;entryDx=0;entryDy=0;" parent="SaHnAKlGwQADHH2T9fnX-106" source="yiIK-uw70T_74rNSMEkW-5" target="yiIK-uw70T_74rNSMEkW-17" edge="1">
          <mxGeometry relative="1" as="geometry" />
        </mxCell>
        <mxCell id="SaHnAKlGwQADHH2T9fnX-1" value="" style="verticalLabelPosition=bottom;html=1;verticalAlign=top;align=center;strokeColor=none;fillColor=#00BEF2;shape=mxgraph.azure.cloud_services_configuration_file;pointerEvents=1;" vertex="1" parent="SaHnAKlGwQADHH2T9fnX-106">
          <mxGeometry x="360" y="80" width="40" height="40" as="geometry" />
        </mxCell>
        <mxCell id="SaHnAKlGwQADHH2T9fnX-2" value="" style="verticalLabelPosition=bottom;html=1;verticalAlign=top;align=center;strokeColor=none;fillColor=#00BEF2;shape=mxgraph.azure.cloud_services_configuration_file;pointerEvents=1;" vertex="1" parent="SaHnAKlGwQADHH2T9fnX-106">
          <mxGeometry x="420" y="80" width="40" height="40" as="geometry" />
        </mxCell>
        <mxCell id="SaHnAKlGwQADHH2T9fnX-3" value="" style="verticalLabelPosition=bottom;html=1;verticalAlign=top;align=center;strokeColor=none;fillColor=#00BEF2;shape=mxgraph.azure.cloud_services_configuration_file;pointerEvents=1;" vertex="1" parent="SaHnAKlGwQADHH2T9fnX-106">
          <mxGeometry x="480" y="80" width="40" height="40" as="geometry" />
        </mxCell>
        <mxCell id="SaHnAKlGwQADHH2T9fnX-4" value="" style="verticalLabelPosition=bottom;html=1;verticalAlign=top;align=center;strokeColor=none;fillColor=#00BEF2;shape=mxgraph.azure.cloud_services_configuration_file;pointerEvents=1;" vertex="1" parent="SaHnAKlGwQADHH2T9fnX-106">
          <mxGeometry x="360" y="180" width="40" height="40" as="geometry" />
        </mxCell>
        <mxCell id="SaHnAKlGwQADHH2T9fnX-5" value="" style="verticalLabelPosition=bottom;html=1;verticalAlign=top;align=center;strokeColor=none;fillColor=#00BEF2;shape=mxgraph.azure.cloud_services_configuration_file;pointerEvents=1;" vertex="1" parent="SaHnAKlGwQADHH2T9fnX-106">
          <mxGeometry x="420" y="180" width="40" height="40" as="geometry" />
        </mxCell>
        <mxCell id="SaHnAKlGwQADHH2T9fnX-6" value="" style="verticalLabelPosition=bottom;html=1;verticalAlign=top;align=center;strokeColor=none;fillColor=#00BEF2;shape=mxgraph.azure.cloud_services_configuration_file;pointerEvents=1;" vertex="1" parent="SaHnAKlGwQADHH2T9fnX-106">
          <mxGeometry x="480" y="180" width="40" height="40" as="geometry" />
        </mxCell>
        <mxCell id="SaHnAKlGwQADHH2T9fnX-7" value="" style="verticalLabelPosition=bottom;html=1;verticalAlign=top;align=center;strokeColor=none;fillColor=#00BEF2;shape=mxgraph.azure.cloud_services_configuration_file;pointerEvents=1;" vertex="1" parent="SaHnAKlGwQADHH2T9fnX-106">
          <mxGeometry x="360" y="280" width="40" height="40" as="geometry" />
        </mxCell>
        <mxCell id="SaHnAKlGwQADHH2T9fnX-8" value="" style="verticalLabelPosition=bottom;html=1;verticalAlign=top;align=center;strokeColor=none;fillColor=#00BEF2;shape=mxgraph.azure.cloud_services_configuration_file;pointerEvents=1;" vertex="1" parent="SaHnAKlGwQADHH2T9fnX-106">
          <mxGeometry x="420" y="280" width="40" height="40" as="geometry" />
        </mxCell>
        <mxCell id="SaHnAKlGwQADHH2T9fnX-9" value="" style="verticalLabelPosition=bottom;html=1;verticalAlign=top;align=center;strokeColor=none;fillColor=#00BEF2;shape=mxgraph.azure.cloud_services_configuration_file;pointerEvents=1;" vertex="1" parent="SaHnAKlGwQADHH2T9fnX-106">
          <mxGeometry x="480" y="280" width="40" height="40" as="geometry" />
        </mxCell>
        <mxCell id="SaHnAKlGwQADHH2T9fnX-107" value="Data Ingestion Architecture" style="swimlane;whiteSpace=wrap;html=1;" vertex="1" parent="1">
          <mxGeometry x="80" y="800" width="680" height="520" as="geometry" />
        </mxCell>
        <mxCell id="SaHnAKlGwQADHH2T9fnX-11" value="Partition 1" style="shape=image;verticalLabelPosition=bottom;labelBackgroundColor=default;verticalAlign=top;aspect=fixed;imageAspect=0;image=data:image/svg+xml,PHN2ZyB4bWxucz0iaHR0cDovL3d3dy53My5vcmcvMjAwMC9zdmciIHZpZXdCb3g9IjAgMCA0OCA0OCIgd2lkdGg9IjQ4cHgiIGhlaWdodD0iNDhweCI+PHBhdGggZmlsbD0iI0ZGQTAwMCIgZD0iTTQwLDEySDIybC00LTRIOGMtMi4yLDAtNCwxLjgtNCw0djhoNDB2LTRDNDQsMTMuOCw0Mi4yLDEyLDQwLDEyeiIvPjxwYXRoIGZpbGw9IiNGRkNBMjgiIGQ9Ik00MCwxMkg4Yy0yLjIsMC00LDEuOC00LDR2MjBjMCwyLjIsMS44LDQsNCw0aDMyYzIuMiwwLDQtMS44LDQtNFYxNkM0NCwxMy44LDQyLjIsMTIsNDAsMTJ6Ii8+PC9zdmc+;" vertex="1" parent="SaHnAKlGwQADHH2T9fnX-107">
          <mxGeometry x="40" y="240" width="80" height="80" as="geometry" />
        </mxCell>
        <mxCell id="SaHnAKlGwQADHH2T9fnX-14" value="Payload Store" style="sketch=0;points=[[0,0,0],[0.25,0,0],[0.5,0,0],[0.75,0,0],[1,0,0],[0,1,0],[0.25,1,0],[0.5,1,0],[0.75,1,0],[1,1,0],[0,0.25,0],[0,0.5,0],[0,0.75,0],[1,0.25,0],[1,0.5,0],[1,0.75,0]];outlineConnect=0;fontColor=#232F3E;gradientColor=#60A337;gradientDirection=north;fillColor=#277116;strokeColor=#ffffff;dashed=0;verticalLabelPosition=bottom;verticalAlign=top;align=center;html=1;fontSize=12;fontStyle=0;aspect=fixed;shape=mxgraph.aws4.resourceIcon;resIcon=mxgraph.aws4.s3;" vertex="1" parent="SaHnAKlGwQADHH2T9fnX-107">
          <mxGeometry x="240" y="80" width="80" height="80" as="geometry" />
        </mxCell>
        <mxCell id="SaHnAKlGwQADHH2T9fnX-15" value="Status&lt;br&gt;Tracker" style="sketch=0;points=[[0,0,0],[0.25,0,0],[0.5,0,0],[0.75,0,0],[1,0,0],[0,1,0],[0.25,1,0],[0.5,1,0],[0.75,1,0],[1,1,0],[0,0.25,0],[0,0.5,0],[0,0.75,0],[1,0.25,0],[1,0.5,0],[1,0.75,0]];outlineConnect=0;fontColor=#232F3E;gradientColor=#4D72F3;gradientDirection=north;fillColor=#3334B9;strokeColor=#ffffff;dashed=0;verticalLabelPosition=bottom;verticalAlign=top;align=center;html=1;fontSize=12;fontStyle=0;aspect=fixed;shape=mxgraph.aws4.resourceIcon;resIcon=mxgraph.aws4.dynamodb;" vertex="1" parent="SaHnAKlGwQADHH2T9fnX-107">
          <mxGeometry x="240" y="399" width="80" height="80" as="geometry" />
        </mxCell>
        <mxCell id="SaHnAKlGwQADHH2T9fnX-16" value="DLQ" style="sketch=0;points=[[0,0,0],[0.25,0,0],[0.5,0,0],[0.75,0,0],[1,0,0],[0,1,0],[0.25,1,0],[0.5,1,0],[0.75,1,0],[1,1,0],[0,0.25,0],[0,0.5,0],[0,0.75,0],[1,0.25,0],[1,0.5,0],[1,0.75,0]];outlineConnect=0;fontColor=#232F3E;gradientColor=#FF4F8B;gradientDirection=north;fillColor=#BC1356;strokeColor=#ffffff;dashed=0;verticalLabelPosition=bottom;verticalAlign=top;align=center;html=1;fontSize=12;fontStyle=0;aspect=fixed;shape=mxgraph.aws4.resourceIcon;resIcon=mxgraph.aws4.sqs;" vertex="1" parent="SaHnAKlGwQADHH2T9fnX-107">
          <mxGeometry x="440" y="240" width="80" height="80" as="geometry" />
        </mxCell>
        <mxCell id="SaHnAKlGwQADHH2T9fnX-17" value="Error Handler" style="sketch=0;points=[[0,0,0],[0.25,0,0],[0.5,0,0],[0.75,0,0],[1,0,0],[0,1,0],[0.25,1,0],[0.5,1,0],[0.75,1,0],[1,1,0],[0,0.25,0],[0,0.5,0],[0,0.75,0],[1,0.25,0],[1,0.5,0],[1,0.75,0]];outlineConnect=0;fontColor=#232F3E;gradientColor=#F78E04;gradientDirection=north;fillColor=#D05C17;strokeColor=#ffffff;dashed=0;verticalLabelPosition=bottom;verticalAlign=top;align=center;html=1;fontSize=12;fontStyle=0;aspect=fixed;shape=mxgraph.aws4.resourceIcon;resIcon=mxgraph.aws4.lambda;" vertex="1" parent="SaHnAKlGwQADHH2T9fnX-107">
          <mxGeometry x="560" y="240" width="80" height="80" as="geometry" />
        </mxCell>
        <mxCell id="SaHnAKlGwQADHH2T9fnX-20" style="edgeStyle=orthogonalEdgeStyle;rounded=0;orthogonalLoop=1;jettySize=auto;html=1;exitX=1;exitY=0.5;exitDx=0;exitDy=0;exitPerimeter=0;entryX=0;entryY=0.5;entryDx=0;entryDy=0;entryPerimeter=0;" edge="1" parent="SaHnAKlGwQADHH2T9fnX-107" source="SaHnAKlGwQADHH2T9fnX-16" target="SaHnAKlGwQADHH2T9fnX-17">
          <mxGeometry relative="1" as="geometry" />
        </mxCell>
        <mxCell id="SaHnAKlGwQADHH2T9fnX-26" value="SFTP downloads" style="sketch=0;points=[[0,0,0],[0.25,0,0],[0.5,0,0],[0.75,0,0],[1,0,0],[0,1,0],[0.25,1,0],[0.5,1,0],[0.75,1,0],[1,1,0],[0,0.25,0],[0,0.5,0],[0,0.75,0],[1,0.25,0],[1,0.5,0],[1,0.75,0]];outlineConnect=0;fontColor=#232F3E;gradientColor=#60A337;gradientDirection=north;fillColor=#277116;strokeColor=#ffffff;dashed=0;verticalLabelPosition=bottom;verticalAlign=top;align=center;html=1;fontSize=12;fontStyle=0;aspect=fixed;shape=mxgraph.aws4.resourceIcon;resIcon=mxgraph.aws4.s3;" vertex="1" parent="SaHnAKlGwQADHH2T9fnX-107">
          <mxGeometry x="440" y="80" width="80" height="80" as="geometry" />
        </mxCell>
        <mxCell id="SaHnAKlGwQADHH2T9fnX-12" value="Coordinator" style="sketch=0;points=[[0,0,0],[0.25,0,0],[0.5,0,0],[0.75,0,0],[1,0,0],[0,1,0],[0.25,1,0],[0.5,1,0],[0.75,1,0],[1,1,0],[0,0.25,0],[0,0.5,0],[0,0.75,0],[1,0.25,0],[1,0.5,0],[1,0.75,0]];outlineConnect=0;fontColor=#232F3E;gradientColor=#F78E04;gradientDirection=north;fillColor=#D05C17;strokeColor=#ffffff;dashed=0;verticalLabelPosition=bottom;verticalAlign=top;align=center;html=1;fontSize=12;fontStyle=0;aspect=fixed;shape=mxgraph.aws4.resourceIcon;resIcon=mxgraph.aws4.lambda;" vertex="1" parent="SaHnAKlGwQADHH2T9fnX-107">
          <mxGeometry x="160" y="240" width="80" height="80" as="geometry" />
        </mxCell>
        <mxCell id="SaHnAKlGwQADHH2T9fnX-10" style="edgeStyle=orthogonalEdgeStyle;rounded=0;orthogonalLoop=1;jettySize=auto;html=1;exitX=1;exitY=0.5;exitDx=0;exitDy=0;entryX=0;entryY=0.5;entryDx=0;entryDy=0;entryPerimeter=0;" edge="1" parent="SaHnAKlGwQADHH2T9fnX-107" source="SaHnAKlGwQADHH2T9fnX-11" target="SaHnAKlGwQADHH2T9fnX-12">
          <mxGeometry relative="1" as="geometry" />
        </mxCell>
        <mxCell id="SaHnAKlGwQADHH2T9fnX-24" style="edgeStyle=orthogonalEdgeStyle;rounded=0;orthogonalLoop=1;jettySize=auto;html=1;exitX=0.5;exitY=0;exitDx=0;exitDy=0;exitPerimeter=0;entryX=0;entryY=0.5;entryDx=0;entryDy=0;entryPerimeter=0;" edge="1" parent="SaHnAKlGwQADHH2T9fnX-107" source="SaHnAKlGwQADHH2T9fnX-12" target="SaHnAKlGwQADHH2T9fnX-14">
          <mxGeometry relative="1" as="geometry" />
        </mxCell>
        <mxCell id="SaHnAKlGwQADHH2T9fnX-22" style="edgeStyle=orthogonalEdgeStyle;rounded=0;orthogonalLoop=1;jettySize=auto;html=1;exitX=0.5;exitY=1;exitDx=0;exitDy=0;exitPerimeter=0;entryX=0;entryY=0.5;entryDx=0;entryDy=0;entryPerimeter=0;" edge="1" parent="SaHnAKlGwQADHH2T9fnX-107" source="SaHnAKlGwQADHH2T9fnX-12" target="SaHnAKlGwQADHH2T9fnX-15">
          <mxGeometry relative="1" as="geometry" />
        </mxCell>
        <mxCell id="SaHnAKlGwQADHH2T9fnX-13" value="Worker" style="sketch=0;points=[[0,0,0],[0.25,0,0],[0.5,0,0],[0.75,0,0],[1,0,0],[0,1,0],[0.25,1,0],[0.5,1,0],[0.75,1,0],[1,1,0],[0,0.25,0],[0,0.5,0],[0,0.75,0],[1,0.25,0],[1,0.5,0],[1,0.75,0]];outlineConnect=0;fontColor=#232F3E;gradientColor=#F78E04;gradientDirection=north;fillColor=#D05C17;strokeColor=#ffffff;dashed=0;verticalLabelPosition=bottom;verticalAlign=top;align=center;html=1;fontSize=12;fontStyle=0;aspect=fixed;shape=mxgraph.aws4.resourceIcon;resIcon=mxgraph.aws4.lambda;" vertex="1" parent="SaHnAKlGwQADHH2T9fnX-107">
          <mxGeometry x="320" y="240" width="80" height="80" as="geometry" />
        </mxCell>
        <mxCell id="SaHnAKlGwQADHH2T9fnX-32" style="edgeStyle=orthogonalEdgeStyle;rounded=0;orthogonalLoop=1;jettySize=auto;html=1;exitX=0.5;exitY=0;exitDx=0;exitDy=0;entryX=0.25;entryY=0;entryDx=0;entryDy=0;entryPerimeter=0;" edge="1" parent="SaHnAKlGwQADHH2T9fnX-107" source="SaHnAKlGwQADHH2T9fnX-11" target="SaHnAKlGwQADHH2T9fnX-13">
          <mxGeometry relative="1" as="geometry">
            <Array as="points">
              <mxPoint x="80" y="200" />
              <mxPoint x="340" y="200" />
            </Array>
          </mxGeometry>
        </mxCell>
        <mxCell id="SaHnAKlGwQADHH2T9fnX-33" style="edgeStyle=orthogonalEdgeStyle;rounded=0;orthogonalLoop=1;jettySize=auto;html=1;exitX=1;exitY=0.5;exitDx=0;exitDy=0;exitPerimeter=0;entryX=0.5;entryY=0;entryDx=0;entryDy=0;entryPerimeter=0;" edge="1" parent="SaHnAKlGwQADHH2T9fnX-107" source="SaHnAKlGwQADHH2T9fnX-14" target="SaHnAKlGwQADHH2T9fnX-13">
          <mxGeometry relative="1" as="geometry" />
        </mxCell>
        <mxCell id="SaHnAKlGwQADHH2T9fnX-23" style="edgeStyle=orthogonalEdgeStyle;rounded=0;orthogonalLoop=1;jettySize=auto;html=1;exitX=0.5;exitY=1;exitDx=0;exitDy=0;exitPerimeter=0;entryX=1;entryY=0.5;entryDx=0;entryDy=0;entryPerimeter=0;startArrow=classic;startFill=1;" edge="1" parent="SaHnAKlGwQADHH2T9fnX-107" source="SaHnAKlGwQADHH2T9fnX-13" target="SaHnAKlGwQADHH2T9fnX-15">
          <mxGeometry relative="1" as="geometry" />
        </mxCell>
        <mxCell id="SaHnAKlGwQADHH2T9fnX-19" style="edgeStyle=orthogonalEdgeStyle;rounded=0;orthogonalLoop=1;jettySize=auto;html=1;exitX=1;exitY=0.5;exitDx=0;exitDy=0;exitPerimeter=0;entryX=0;entryY=0.5;entryDx=0;entryDy=0;entryPerimeter=0;" edge="1" parent="SaHnAKlGwQADHH2T9fnX-107" source="SaHnAKlGwQADHH2T9fnX-13" target="SaHnAKlGwQADHH2T9fnX-16">
          <mxGeometry relative="1" as="geometry" />
        </mxCell>
        <mxCell id="SaHnAKlGwQADHH2T9fnX-29" style="edgeStyle=orthogonalEdgeStyle;rounded=0;orthogonalLoop=1;jettySize=auto;html=1;exitX=0.75;exitY=0;exitDx=0;exitDy=0;exitPerimeter=0;entryX=0;entryY=0.5;entryDx=0;entryDy=0;entryPerimeter=0;" edge="1" parent="SaHnAKlGwQADHH2T9fnX-107" source="SaHnAKlGwQADHH2T9fnX-13" target="SaHnAKlGwQADHH2T9fnX-26">
          <mxGeometry relative="1" as="geometry" />
        </mxCell>
        <mxCell id="SaHnAKlGwQADHH2T9fnX-18" value="async" style="edgeStyle=orthogonalEdgeStyle;rounded=0;orthogonalLoop=1;jettySize=auto;html=1;exitX=1;exitY=0.5;exitDx=0;exitDy=0;exitPerimeter=0;entryX=0;entryY=0.5;entryDx=0;entryDy=0;entryPerimeter=0;" edge="1" parent="SaHnAKlGwQADHH2T9fnX-107" source="SaHnAKlGwQADHH2T9fnX-12" target="SaHnAKlGwQADHH2T9fnX-13">
          <mxGeometry relative="1" as="geometry" />
        </mxCell>
        <mxCell id="SaHnAKlGwQADHH2T9fnX-108" value="Coordinator Behavior" style="swimlane;whiteSpace=wrap;html=1;" vertex="1" parent="1">
          <mxGeometry x="40" y="1400" width="920" height="440" as="geometry" />
        </mxCell>
        <mxCell id="SaHnAKlGwQADHH2T9fnX-49" value="batch 1" style="rounded=0;whiteSpace=wrap;html=1;strokeColor=#000000;fillColor=none;verticalAlign=top;" vertex="1" parent="SaHnAKlGwQADHH2T9fnX-108">
          <mxGeometry x="480" y="80" width="240" height="80" as="geometry" />
        </mxCell>
        <mxCell id="SaHnAKlGwQADHH2T9fnX-36" value="" style="verticalLabelPosition=bottom;html=1;verticalAlign=top;align=center;strokeColor=#82b366;fillColor=#d5e8d4;shape=mxgraph.azure.file_2;pointerEvents=1;" vertex="1" parent="SaHnAKlGwQADHH2T9fnX-108">
          <mxGeometry x="500" y="220" width="40" height="40" as="geometry" />
        </mxCell>
        <mxCell id="SaHnAKlGwQADHH2T9fnX-37" value="" style="verticalLabelPosition=bottom;html=1;verticalAlign=top;align=center;strokeColor=#82b366;fillColor=#d5e8d4;shape=mxgraph.azure.file_2;pointerEvents=1;" vertex="1" parent="SaHnAKlGwQADHH2T9fnX-108">
          <mxGeometry x="580" y="220" width="40" height="40" as="geometry" />
        </mxCell>
        <mxCell id="SaHnAKlGwQADHH2T9fnX-38" value="" style="verticalLabelPosition=bottom;html=1;verticalAlign=top;align=center;strokeColor=#82b366;fillColor=#d5e8d4;shape=mxgraph.azure.file_2;pointerEvents=1;" vertex="1" parent="SaHnAKlGwQADHH2T9fnX-108">
          <mxGeometry x="660" y="220" width="40" height="40" as="geometry" />
        </mxCell>
        <mxCell id="SaHnAKlGwQADHH2T9fnX-39" value="" style="verticalLabelPosition=bottom;html=1;verticalAlign=top;align=center;strokeColor=#b85450;fillColor=#f8cecc;shape=mxgraph.azure.file_2;pointerEvents=1;" vertex="1" parent="SaHnAKlGwQADHH2T9fnX-108">
          <mxGeometry x="500" y="340" width="40" height="40" as="geometry" />
        </mxCell>
        <mxCell id="SaHnAKlGwQADHH2T9fnX-40" value="" style="verticalLabelPosition=bottom;html=1;verticalAlign=top;align=center;strokeColor=#b85450;fillColor=#f8cecc;shape=mxgraph.azure.file_2;pointerEvents=1;" vertex="1" parent="SaHnAKlGwQADHH2T9fnX-108">
          <mxGeometry x="580" y="340" width="40" height="40" as="geometry" />
        </mxCell>
        <mxCell id="SaHnAKlGwQADHH2T9fnX-41" value="" style="verticalLabelPosition=bottom;html=1;verticalAlign=top;align=center;strokeColor=#b85450;fillColor=#f8cecc;shape=mxgraph.azure.file_2;pointerEvents=1;" vertex="1" parent="SaHnAKlGwQADHH2T9fnX-108">
          <mxGeometry x="660" y="340" width="40" height="40" as="geometry" />
        </mxCell>
        <mxCell id="SaHnAKlGwQADHH2T9fnX-42" value="" style="verticalLabelPosition=bottom;html=1;verticalAlign=top;align=center;strokeColor=#6c8ebf;fillColor=#dae8fc;shape=mxgraph.azure.file_2;pointerEvents=1;" vertex="1" parent="SaHnAKlGwQADHH2T9fnX-108">
          <mxGeometry x="500" y="100" width="40" height="40" as="geometry" />
        </mxCell>
        <mxCell id="SaHnAKlGwQADHH2T9fnX-43" value="" style="verticalLabelPosition=bottom;html=1;verticalAlign=top;align=center;strokeColor=#6c8ebf;fillColor=#dae8fc;shape=mxgraph.azure.file_2;pointerEvents=1;" vertex="1" parent="SaHnAKlGwQADHH2T9fnX-108">
          <mxGeometry x="580" y="100" width="40" height="40" as="geometry" />
        </mxCell>
        <mxCell id="SaHnAKlGwQADHH2T9fnX-44" value="" style="verticalLabelPosition=bottom;html=1;verticalAlign=top;align=center;strokeColor=#6c8ebf;fillColor=#dae8fc;shape=mxgraph.azure.file_2;pointerEvents=1;" vertex="1" parent="SaHnAKlGwQADHH2T9fnX-108">
          <mxGeometry x="660" y="100" width="40" height="40" as="geometry" />
        </mxCell>
        <mxCell id="SaHnAKlGwQADHH2T9fnX-46" style="edgeStyle=orthogonalEdgeStyle;rounded=0;orthogonalLoop=1;jettySize=auto;html=1;exitX=1;exitY=0.25;exitDx=0;exitDy=0;exitPerimeter=0;entryX=0;entryY=0.5;entryDx=0;entryDy=0;" edge="1" parent="SaHnAKlGwQADHH2T9fnX-108" source="SaHnAKlGwQADHH2T9fnX-48" target="SaHnAKlGwQADHH2T9fnX-49">
          <mxGeometry relative="1" as="geometry">
            <Array as="points">
              <mxPoint x="440" y="220" />
              <mxPoint x="440" y="120" />
            </Array>
          </mxGeometry>
        </mxCell>
        <mxCell id="SaHnAKlGwQADHH2T9fnX-48" value="Coordinator" style="sketch=0;points=[[0,0,0],[0.25,0,0],[0.5,0,0],[0.75,0,0],[1,0,0],[0,1,0],[0.25,1,0],[0.5,1,0],[0.75,1,0],[1,1,0],[0,0.25,0],[0,0.5,0],[0,0.75,0],[1,0.25,0],[1,0.5,0],[1,0.75,0]];outlineConnect=0;fontColor=#232F3E;gradientColor=#F78E04;gradientDirection=north;fillColor=#D05C17;strokeColor=#ffffff;dashed=0;verticalLabelPosition=bottom;verticalAlign=top;align=center;html=1;fontSize=12;fontStyle=0;aspect=fixed;shape=mxgraph.aws4.resourceIcon;resIcon=mxgraph.aws4.lambda;" vertex="1" parent="SaHnAKlGwQADHH2T9fnX-108">
          <mxGeometry x="320" y="200" width="80" height="80" as="geometry" />
        </mxCell>
        <mxCell id="SaHnAKlGwQADHH2T9fnX-50" value="batch 2" style="rounded=0;whiteSpace=wrap;html=1;strokeColor=#000000;fillColor=none;verticalAlign=top;" vertex="1" parent="SaHnAKlGwQADHH2T9fnX-108">
          <mxGeometry x="480" y="200" width="240" height="80" as="geometry" />
        </mxCell>
        <mxCell id="SaHnAKlGwQADHH2T9fnX-45" style="edgeStyle=orthogonalEdgeStyle;rounded=0;orthogonalLoop=1;jettySize=auto;html=1;exitX=1;exitY=0.5;exitDx=0;exitDy=0;exitPerimeter=0;entryX=0;entryY=0.5;entryDx=0;entryDy=0;" edge="1" parent="SaHnAKlGwQADHH2T9fnX-108" source="SaHnAKlGwQADHH2T9fnX-48" target="SaHnAKlGwQADHH2T9fnX-50">
          <mxGeometry relative="1" as="geometry" />
        </mxCell>
        <mxCell id="SaHnAKlGwQADHH2T9fnX-51" value="batch 3" style="rounded=0;whiteSpace=wrap;html=1;strokeColor=#000000;fillColor=none;verticalAlign=top;" vertex="1" parent="SaHnAKlGwQADHH2T9fnX-108">
          <mxGeometry x="480" y="320" width="240" height="80" as="geometry" />
        </mxCell>
        <mxCell id="SaHnAKlGwQADHH2T9fnX-47" value="" style="edgeStyle=orthogonalEdgeStyle;rounded=0;orthogonalLoop=1;jettySize=auto;html=1;exitX=1;exitY=0.75;exitDx=0;exitDy=0;exitPerimeter=0;entryX=0;entryY=0.5;entryDx=0;entryDy=0;" edge="1" parent="SaHnAKlGwQADHH2T9fnX-108" source="SaHnAKlGwQADHH2T9fnX-48" target="SaHnAKlGwQADHH2T9fnX-51">
          <mxGeometry relative="1" as="geometry">
            <Array as="points">
              <mxPoint x="440" y="260" />
              <mxPoint x="440" y="360" />
            </Array>
          </mxGeometry>
        </mxCell>
        <mxCell id="SaHnAKlGwQADHH2T9fnX-53" style="edgeStyle=orthogonalEdgeStyle;rounded=0;orthogonalLoop=1;jettySize=auto;html=1;entryX=0;entryY=0.5;entryDx=0;entryDy=0;entryPerimeter=0;" edge="1" parent="SaHnAKlGwQADHH2T9fnX-108" source="SaHnAKlGwQADHH2T9fnX-52" target="SaHnAKlGwQADHH2T9fnX-48">
          <mxGeometry relative="1" as="geometry" />
        </mxCell>
        <mxCell id="SaHnAKlGwQADHH2T9fnX-52" value="Partition 1" style="shape=image;verticalLabelPosition=bottom;labelBackgroundColor=default;verticalAlign=top;aspect=fixed;imageAspect=0;image=data:image/svg+xml,PHN2ZyB4bWxucz0iaHR0cDovL3d3dy53My5vcmcvMjAwMC9zdmciIHZpZXdCb3g9IjAgMCA0OCA0OCIgd2lkdGg9IjQ4cHgiIGhlaWdodD0iNDhweCI+PHBhdGggZmlsbD0iI0ZGQTAwMCIgZD0iTTQwLDEySDIybC00LTRIOGMtMi4yLDAtNCwxLjgtNCw0djhoNDB2LTRDNDQsMTMuOCw0Mi4yLDEyLDQwLDEyeiIvPjxwYXRoIGZpbGw9IiNGRkNBMjgiIGQ9Ik00MCwxMkg4Yy0yLjIsMC00LDEuOC00LDR2MjBjMCwyLjIsMS44LDQsNCw0aDMyYzIuMiwwLDQtMS44LDQtNFYxNkM0NCwxMy44LDQyLjIsMTIsNDAsMTJ6Ii8+PC9zdmc+;" vertex="1" parent="SaHnAKlGwQADHH2T9fnX-108">
          <mxGeometry x="40" y="200" width="80" height="80" as="geometry" />
        </mxCell>
        <mxCell id="SaHnAKlGwQADHH2T9fnX-54" value="" style="verticalLabelPosition=bottom;html=1;verticalAlign=top;align=center;strokeColor=#b85450;fillColor=#f8cecc;shape=mxgraph.azure.file_2;pointerEvents=1;" vertex="1" parent="SaHnAKlGwQADHH2T9fnX-108">
          <mxGeometry x="260" y="180" width="40" height="40" as="geometry" />
        </mxCell>
        <mxCell id="SaHnAKlGwQADHH2T9fnX-56" value="" style="verticalLabelPosition=bottom;html=1;verticalAlign=top;align=center;strokeColor=#6c8ebf;fillColor=#dae8fc;shape=mxgraph.azure.file_2;pointerEvents=1;" vertex="1" parent="SaHnAKlGwQADHH2T9fnX-108">
          <mxGeometry x="200" y="180" width="40" height="40" as="geometry" />
        </mxCell>
        <mxCell id="SaHnAKlGwQADHH2T9fnX-57" value="" style="verticalLabelPosition=bottom;html=1;verticalAlign=top;align=center;strokeColor=#82b366;fillColor=#d5e8d4;shape=mxgraph.azure.file_2;pointerEvents=1;" vertex="1" parent="SaHnAKlGwQADHH2T9fnX-108">
          <mxGeometry x="140" y="180" width="40" height="40" as="geometry" />
        </mxCell>
        <mxCell id="SaHnAKlGwQADHH2T9fnX-58" value="" style="verticalLabelPosition=bottom;html=1;verticalAlign=top;align=center;strokeColor=#b85450;fillColor=#f8cecc;shape=mxgraph.azure.file_2;pointerEvents=1;" vertex="1" parent="SaHnAKlGwQADHH2T9fnX-108">
          <mxGeometry x="140" y="120" width="40" height="40" as="geometry" />
        </mxCell>
        <mxCell id="SaHnAKlGwQADHH2T9fnX-59" value="" style="verticalLabelPosition=bottom;html=1;verticalAlign=top;align=center;strokeColor=#6c8ebf;fillColor=#dae8fc;shape=mxgraph.azure.file_2;pointerEvents=1;" vertex="1" parent="SaHnAKlGwQADHH2T9fnX-108">
          <mxGeometry x="200" y="120" width="40" height="40" as="geometry" />
        </mxCell>
        <mxCell id="SaHnAKlGwQADHH2T9fnX-60" value="" style="verticalLabelPosition=bottom;html=1;verticalAlign=top;align=center;strokeColor=#82b366;fillColor=#d5e8d4;shape=mxgraph.azure.file_2;pointerEvents=1;" vertex="1" parent="SaHnAKlGwQADHH2T9fnX-108">
          <mxGeometry x="260" y="120" width="40" height="40" as="geometry" />
        </mxCell>
        <mxCell id="SaHnAKlGwQADHH2T9fnX-61" value="" style="verticalLabelPosition=bottom;html=1;verticalAlign=top;align=center;strokeColor=#6c8ebf;fillColor=#dae8fc;shape=mxgraph.azure.file_2;pointerEvents=1;" vertex="1" parent="SaHnAKlGwQADHH2T9fnX-108">
          <mxGeometry x="140" y="60" width="40" height="40" as="geometry" />
        </mxCell>
        <mxCell id="SaHnAKlGwQADHH2T9fnX-62" value="" style="verticalLabelPosition=bottom;html=1;verticalAlign=top;align=center;strokeColor=#82b366;fillColor=#d5e8d4;shape=mxgraph.azure.file_2;pointerEvents=1;" vertex="1" parent="SaHnAKlGwQADHH2T9fnX-108">
          <mxGeometry x="200" y="60" width="40" height="40" as="geometry" />
        </mxCell>
        <mxCell id="SaHnAKlGwQADHH2T9fnX-63" value="" style="verticalLabelPosition=bottom;html=1;verticalAlign=top;align=center;strokeColor=#b85450;fillColor=#f8cecc;shape=mxgraph.azure.file_2;pointerEvents=1;" vertex="1" parent="SaHnAKlGwQADHH2T9fnX-108">
          <mxGeometry x="260" y="60" width="40" height="40" as="geometry" />
        </mxCell>
        <mxCell id="SaHnAKlGwQADHH2T9fnX-64" value="Payload Store" style="sketch=0;points=[[0,0,0],[0.25,0,0],[0.5,0,0],[0.75,0,0],[1,0,0],[0,1,0],[0.25,1,0],[0.5,1,0],[0.75,1,0],[1,1,0],[0,0.25,0],[0,0.5,0],[0,0.75,0],[1,0.25,0],[1,0.5,0],[1,0.75,0]];outlineConnect=0;fontColor=#232F3E;gradientColor=#60A337;gradientDirection=north;fillColor=#277116;strokeColor=#ffffff;dashed=0;verticalLabelPosition=bottom;verticalAlign=top;align=center;html=1;fontSize=12;fontStyle=0;aspect=fixed;shape=mxgraph.aws4.resourceIcon;resIcon=mxgraph.aws4.s3;" vertex="1" parent="SaHnAKlGwQADHH2T9fnX-108">
          <mxGeometry x="800" y="200" width="80" height="80" as="geometry" />
        </mxCell>
        <mxCell id="SaHnAKlGwQADHH2T9fnX-65" style="edgeStyle=orthogonalEdgeStyle;rounded=0;orthogonalLoop=1;jettySize=auto;html=1;exitX=1;exitY=0.5;exitDx=0;exitDy=0;entryX=0;entryY=0.5;entryDx=0;entryDy=0;entryPerimeter=0;" edge="1" parent="SaHnAKlGwQADHH2T9fnX-108" source="SaHnAKlGwQADHH2T9fnX-49" target="SaHnAKlGwQADHH2T9fnX-64">
          <mxGeometry relative="1" as="geometry">
            <Array as="points">
              <mxPoint x="760" y="120" />
              <mxPoint x="760" y="240" />
            </Array>
          </mxGeometry>
        </mxCell>
        <mxCell id="SaHnAKlGwQADHH2T9fnX-66" style="edgeStyle=orthogonalEdgeStyle;rounded=0;orthogonalLoop=1;jettySize=auto;html=1;exitX=1;exitY=0.5;exitDx=0;exitDy=0;entryX=0;entryY=0.5;entryDx=0;entryDy=0;entryPerimeter=0;" edge="1" parent="SaHnAKlGwQADHH2T9fnX-108" source="SaHnAKlGwQADHH2T9fnX-50" target="SaHnAKlGwQADHH2T9fnX-64">
          <mxGeometry relative="1" as="geometry" />
        </mxCell>
        <mxCell id="SaHnAKlGwQADHH2T9fnX-67" style="edgeStyle=orthogonalEdgeStyle;rounded=0;orthogonalLoop=1;jettySize=auto;html=1;exitX=1;exitY=0.5;exitDx=0;exitDy=0;entryX=0;entryY=0.5;entryDx=0;entryDy=0;entryPerimeter=0;" edge="1" parent="SaHnAKlGwQADHH2T9fnX-108" source="SaHnAKlGwQADHH2T9fnX-51" target="SaHnAKlGwQADHH2T9fnX-64">
          <mxGeometry relative="1" as="geometry">
            <Array as="points">
              <mxPoint x="760" y="360" />
              <mxPoint x="760" y="240" />
            </Array>
          </mxGeometry>
        </mxCell>
        <mxCell id="SaHnAKlGwQADHH2T9fnX-109" value="Worker Behavior" style="swimlane;whiteSpace=wrap;html=1;" vertex="1" parent="1">
          <mxGeometry x="40" y="1920" width="800" height="440" as="geometry" />
        </mxCell>
        <mxCell id="SaHnAKlGwQADHH2T9fnX-68" value="Worker" style="sketch=0;points=[[0,0,0],[0.25,0,0],[0.5,0,0],[0.75,0,0],[1,0,0],[0,1,0],[0.25,1,0],[0.5,1,0],[0.75,1,0],[1,1,0],[0,0.25,0],[0,0.5,0],[0,0.75,0],[1,0.25,0],[1,0.5,0],[1,0.75,0]];outlineConnect=0;fontColor=#232F3E;gradientColor=#F78E04;gradientDirection=north;fillColor=#D05C17;strokeColor=#ffffff;dashed=0;verticalLabelPosition=bottom;verticalAlign=top;align=center;html=1;fontSize=12;fontStyle=0;aspect=fixed;shape=mxgraph.aws4.resourceIcon;resIcon=mxgraph.aws4.lambda;" vertex="1" parent="SaHnAKlGwQADHH2T9fnX-109">
          <mxGeometry x="520" y="80" width="80" height="80" as="geometry" />
        </mxCell>
        <mxCell id="SaHnAKlGwQADHH2T9fnX-81" value="Payload Store" style="sketch=0;points=[[0,0,0],[0.25,0,0],[0.5,0,0],[0.75,0,0],[1,0,0],[0,1,0],[0.25,1,0],[0.5,1,0],[0.75,1,0],[1,1,0],[0,0.25,0],[0,0.5,0],[0,0.75,0],[1,0.25,0],[1,0.5,0],[1,0.75,0]];outlineConnect=0;fontColor=#232F3E;gradientColor=#60A337;gradientDirection=north;fillColor=#277116;strokeColor=#ffffff;dashed=0;verticalLabelPosition=bottom;verticalAlign=top;align=center;html=1;fontSize=12;fontStyle=0;aspect=fixed;shape=mxgraph.aws4.resourceIcon;resIcon=mxgraph.aws4.s3;" vertex="1" parent="SaHnAKlGwQADHH2T9fnX-109">
          <mxGeometry x="40" y="200" width="80" height="80" as="geometry" />
        </mxCell>
        <mxCell id="SaHnAKlGwQADHH2T9fnX-82" value="Worker" style="sketch=0;points=[[0,0,0],[0.25,0,0],[0.5,0,0],[0.75,0,0],[1,0,0],[0,1,0],[0.25,1,0],[0.5,1,0],[0.75,1,0],[1,1,0],[0,0.25,0],[0,0.5,0],[0,0.75,0],[1,0.25,0],[1,0.5,0],[1,0.75,0]];outlineConnect=0;fontColor=#232F3E;gradientColor=#F78E04;gradientDirection=north;fillColor=#D05C17;strokeColor=#ffffff;dashed=0;verticalLabelPosition=bottom;verticalAlign=top;align=center;html=1;fontSize=12;fontStyle=0;aspect=fixed;shape=mxgraph.aws4.resourceIcon;resIcon=mxgraph.aws4.lambda;" vertex="1" parent="SaHnAKlGwQADHH2T9fnX-109">
          <mxGeometry x="520" y="200" width="80" height="80" as="geometry" />
        </mxCell>
        <mxCell id="SaHnAKlGwQADHH2T9fnX-83" value="Worker" style="sketch=0;points=[[0,0,0],[0.25,0,0],[0.5,0,0],[0.75,0,0],[1,0,0],[0,1,0],[0.25,1,0],[0.5,1,0],[0.75,1,0],[1,1,0],[0,0.25,0],[0,0.5,0],[0,0.75,0],[1,0.25,0],[1,0.5,0],[1,0.75,0]];outlineConnect=0;fontColor=#232F3E;gradientColor=#F78E04;gradientDirection=north;fillColor=#D05C17;strokeColor=#ffffff;dashed=0;verticalLabelPosition=bottom;verticalAlign=top;align=center;html=1;fontSize=12;fontStyle=0;aspect=fixed;shape=mxgraph.aws4.resourceIcon;resIcon=mxgraph.aws4.lambda;" vertex="1" parent="SaHnAKlGwQADHH2T9fnX-109">
          <mxGeometry x="520" y="320" width="80" height="80" as="geometry" />
        </mxCell>
        <mxCell id="SaHnAKlGwQADHH2T9fnX-97" style="edgeStyle=orthogonalEdgeStyle;rounded=0;orthogonalLoop=1;jettySize=auto;html=1;exitX=1;exitY=0.5;exitDx=0;exitDy=0;entryX=0;entryY=0.5;entryDx=0;entryDy=0;entryPerimeter=0;" edge="1" parent="SaHnAKlGwQADHH2T9fnX-109" source="SaHnAKlGwQADHH2T9fnX-84" target="SaHnAKlGwQADHH2T9fnX-68">
          <mxGeometry relative="1" as="geometry" />
        </mxCell>
        <mxCell id="SaHnAKlGwQADHH2T9fnX-84" value="batch 1" style="rounded=0;whiteSpace=wrap;html=1;strokeColor=#000000;fillColor=none;verticalAlign=top;" vertex="1" parent="SaHnAKlGwQADHH2T9fnX-109">
          <mxGeometry x="200" y="80" width="240" height="80" as="geometry" />
        </mxCell>
        <mxCell id="SaHnAKlGwQADHH2T9fnX-103" style="edgeStyle=orthogonalEdgeStyle;rounded=0;orthogonalLoop=1;jettySize=auto;html=1;exitX=1;exitY=0.5;exitDx=0;exitDy=0;exitPerimeter=0;entryX=0;entryY=0.5;entryDx=0;entryDy=0;" edge="1" parent="SaHnAKlGwQADHH2T9fnX-109" source="SaHnAKlGwQADHH2T9fnX-81" target="SaHnAKlGwQADHH2T9fnX-84">
          <mxGeometry relative="1" as="geometry" />
        </mxCell>
        <mxCell id="SaHnAKlGwQADHH2T9fnX-85" value="" style="verticalLabelPosition=bottom;html=1;verticalAlign=top;align=center;strokeColor=#82b366;fillColor=#d5e8d4;shape=mxgraph.azure.file_2;pointerEvents=1;" vertex="1" parent="SaHnAKlGwQADHH2T9fnX-109">
          <mxGeometry x="220" y="220" width="40" height="40" as="geometry" />
        </mxCell>
        <mxCell id="SaHnAKlGwQADHH2T9fnX-86" value="" style="verticalLabelPosition=bottom;html=1;verticalAlign=top;align=center;strokeColor=#82b366;fillColor=#d5e8d4;shape=mxgraph.azure.file_2;pointerEvents=1;" vertex="1" parent="SaHnAKlGwQADHH2T9fnX-109">
          <mxGeometry x="300" y="220" width="40" height="40" as="geometry" />
        </mxCell>
        <mxCell id="SaHnAKlGwQADHH2T9fnX-87" value="" style="verticalLabelPosition=bottom;html=1;verticalAlign=top;align=center;strokeColor=#82b366;fillColor=#d5e8d4;shape=mxgraph.azure.file_2;pointerEvents=1;" vertex="1" parent="SaHnAKlGwQADHH2T9fnX-109">
          <mxGeometry x="380" y="220" width="40" height="40" as="geometry" />
        </mxCell>
        <mxCell id="SaHnAKlGwQADHH2T9fnX-88" value="" style="verticalLabelPosition=bottom;html=1;verticalAlign=top;align=center;strokeColor=#b85450;fillColor=#f8cecc;shape=mxgraph.azure.file_2;pointerEvents=1;" vertex="1" parent="SaHnAKlGwQADHH2T9fnX-109">
          <mxGeometry x="220" y="340" width="40" height="40" as="geometry" />
        </mxCell>
        <mxCell id="SaHnAKlGwQADHH2T9fnX-89" value="" style="verticalLabelPosition=bottom;html=1;verticalAlign=top;align=center;strokeColor=#b85450;fillColor=#f8cecc;shape=mxgraph.azure.file_2;pointerEvents=1;" vertex="1" parent="SaHnAKlGwQADHH2T9fnX-109">
          <mxGeometry x="300" y="340" width="40" height="40" as="geometry" />
        </mxCell>
        <mxCell id="SaHnAKlGwQADHH2T9fnX-90" value="" style="verticalLabelPosition=bottom;html=1;verticalAlign=top;align=center;strokeColor=#b85450;fillColor=#f8cecc;shape=mxgraph.azure.file_2;pointerEvents=1;" vertex="1" parent="SaHnAKlGwQADHH2T9fnX-109">
          <mxGeometry x="380" y="340" width="40" height="40" as="geometry" />
        </mxCell>
        <mxCell id="SaHnAKlGwQADHH2T9fnX-91" value="" style="verticalLabelPosition=bottom;html=1;verticalAlign=top;align=center;strokeColor=#6c8ebf;fillColor=#dae8fc;shape=mxgraph.azure.file_2;pointerEvents=1;" vertex="1" parent="SaHnAKlGwQADHH2T9fnX-109">
          <mxGeometry x="220" y="100" width="40" height="40" as="geometry" />
        </mxCell>
        <mxCell id="SaHnAKlGwQADHH2T9fnX-92" value="" style="verticalLabelPosition=bottom;html=1;verticalAlign=top;align=center;strokeColor=#6c8ebf;fillColor=#dae8fc;shape=mxgraph.azure.file_2;pointerEvents=1;" vertex="1" parent="SaHnAKlGwQADHH2T9fnX-109">
          <mxGeometry x="300" y="100" width="40" height="40" as="geometry" />
        </mxCell>
        <mxCell id="SaHnAKlGwQADHH2T9fnX-93" value="" style="verticalLabelPosition=bottom;html=1;verticalAlign=top;align=center;strokeColor=#6c8ebf;fillColor=#dae8fc;shape=mxgraph.azure.file_2;pointerEvents=1;" vertex="1" parent="SaHnAKlGwQADHH2T9fnX-109">
          <mxGeometry x="380" y="100" width="40" height="40" as="geometry" />
        </mxCell>
        <mxCell id="SaHnAKlGwQADHH2T9fnX-98" style="edgeStyle=orthogonalEdgeStyle;rounded=0;orthogonalLoop=1;jettySize=auto;html=1;exitX=1;exitY=0.5;exitDx=0;exitDy=0;entryX=0;entryY=0.5;entryDx=0;entryDy=0;entryPerimeter=0;" edge="1" parent="SaHnAKlGwQADHH2T9fnX-109" source="SaHnAKlGwQADHH2T9fnX-94" target="SaHnAKlGwQADHH2T9fnX-82">
          <mxGeometry relative="1" as="geometry" />
        </mxCell>
        <mxCell id="SaHnAKlGwQADHH2T9fnX-94" value="batch 2" style="rounded=0;whiteSpace=wrap;html=1;strokeColor=#000000;fillColor=none;verticalAlign=top;" vertex="1" parent="SaHnAKlGwQADHH2T9fnX-109">
          <mxGeometry x="200" y="200" width="240" height="80" as="geometry" />
        </mxCell>
        <mxCell id="SaHnAKlGwQADHH2T9fnX-104" style="edgeStyle=orthogonalEdgeStyle;rounded=0;orthogonalLoop=1;jettySize=auto;html=1;exitX=1;exitY=0.5;exitDx=0;exitDy=0;exitPerimeter=0;entryX=0;entryY=0.5;entryDx=0;entryDy=0;" edge="1" parent="SaHnAKlGwQADHH2T9fnX-109" source="SaHnAKlGwQADHH2T9fnX-81" target="SaHnAKlGwQADHH2T9fnX-94">
          <mxGeometry relative="1" as="geometry" />
        </mxCell>
        <mxCell id="SaHnAKlGwQADHH2T9fnX-99" style="edgeStyle=orthogonalEdgeStyle;rounded=0;orthogonalLoop=1;jettySize=auto;html=1;exitX=1;exitY=0.5;exitDx=0;exitDy=0;entryX=0;entryY=0.5;entryDx=0;entryDy=0;entryPerimeter=0;" edge="1" parent="SaHnAKlGwQADHH2T9fnX-109" source="SaHnAKlGwQADHH2T9fnX-95" target="SaHnAKlGwQADHH2T9fnX-83">
          <mxGeometry relative="1" as="geometry" />
        </mxCell>
        <mxCell id="SaHnAKlGwQADHH2T9fnX-95" value="batch 3" style="rounded=0;whiteSpace=wrap;html=1;strokeColor=#000000;fillColor=none;verticalAlign=top;" vertex="1" parent="SaHnAKlGwQADHH2T9fnX-109">
          <mxGeometry x="200" y="320" width="240" height="80" as="geometry" />
        </mxCell>
        <mxCell id="SaHnAKlGwQADHH2T9fnX-105" style="edgeStyle=orthogonalEdgeStyle;rounded=0;orthogonalLoop=1;jettySize=auto;html=1;exitX=1;exitY=0.5;exitDx=0;exitDy=0;exitPerimeter=0;entryX=0;entryY=0.5;entryDx=0;entryDy=0;" edge="1" parent="SaHnAKlGwQADHH2T9fnX-109" source="SaHnAKlGwQADHH2T9fnX-81" target="SaHnAKlGwQADHH2T9fnX-95">
          <mxGeometry relative="1" as="geometry" />
        </mxCell>
        <mxCell id="SaHnAKlGwQADHH2T9fnX-96" value="SFTP downloads" style="sketch=0;points=[[0,0,0],[0.25,0,0],[0.5,0,0],[0.75,0,0],[1,0,0],[0,1,0],[0.25,1,0],[0.5,1,0],[0.75,1,0],[1,1,0],[0,0.25,0],[0,0.5,0],[0,0.75,0],[1,0.25,0],[1,0.5,0],[1,0.75,0]];outlineConnect=0;fontColor=#232F3E;gradientColor=#60A337;gradientDirection=north;fillColor=#277116;strokeColor=#ffffff;dashed=0;verticalLabelPosition=bottom;verticalAlign=top;align=center;html=1;fontSize=12;fontStyle=0;aspect=fixed;shape=mxgraph.aws4.resourceIcon;resIcon=mxgraph.aws4.s3;" vertex="1" parent="SaHnAKlGwQADHH2T9fnX-109">
          <mxGeometry x="680" y="200" width="80" height="80" as="geometry" />
        </mxCell>
        <mxCell id="SaHnAKlGwQADHH2T9fnX-102" style="edgeStyle=orthogonalEdgeStyle;rounded=0;orthogonalLoop=1;jettySize=auto;html=1;exitX=1;exitY=0.5;exitDx=0;exitDy=0;exitPerimeter=0;entryX=0;entryY=0.5;entryDx=0;entryDy=0;entryPerimeter=0;" edge="1" parent="SaHnAKlGwQADHH2T9fnX-109" source="SaHnAKlGwQADHH2T9fnX-68" target="SaHnAKlGwQADHH2T9fnX-96">
          <mxGeometry relative="1" as="geometry" />
        </mxCell>
        <mxCell id="SaHnAKlGwQADHH2T9fnX-101" style="edgeStyle=orthogonalEdgeStyle;rounded=0;orthogonalLoop=1;jettySize=auto;html=1;exitX=1;exitY=0.5;exitDx=0;exitDy=0;exitPerimeter=0;entryX=0;entryY=0.5;entryDx=0;entryDy=0;entryPerimeter=0;" edge="1" parent="SaHnAKlGwQADHH2T9fnX-109" source="SaHnAKlGwQADHH2T9fnX-82" target="SaHnAKlGwQADHH2T9fnX-96">
          <mxGeometry relative="1" as="geometry" />
        </mxCell>
        <mxCell id="SaHnAKlGwQADHH2T9fnX-100" style="edgeStyle=orthogonalEdgeStyle;rounded=0;orthogonalLoop=1;jettySize=auto;html=1;exitX=1;exitY=0.5;exitDx=0;exitDy=0;exitPerimeter=0;entryX=0;entryY=0.5;entryDx=0;entryDy=0;entryPerimeter=0;" edge="1" parent="SaHnAKlGwQADHH2T9fnX-109" source="SaHnAKlGwQADHH2T9fnX-83" target="SaHnAKlGwQADHH2T9fnX-96">
          <mxGeometry relative="1" as="geometry" />
        </mxCell>
      </root>
    </mxGraphModel>
  </diagram>
</mxfile>
